<svg width="119" height="119" viewBox="0 0 119 119" fill="none" xmlns="http://www.w3.org/2000/svg">
<mask id="path-1-inside-1_267_4449" fill="white">
<path d="M0 59.4286C0 26.6071 26.6071 0 59.4286 0V0C92.2501 0 118.857 26.6071 118.857 59.4286V59.4286C118.857 92.2501 92.2501 118.857 59.4286 118.857V118.857C26.6071 118.857 0 92.2501 0 59.4286V59.4286Z"/>
</mask>
<path d="M59.4286 118.857V117.371C57.8963 117.371 56.3781 117.312 54.8763 117.195L54.7612 118.677L54.6462 120.158C56.2245 120.28 57.8194 120.343 59.4286 120.343V118.857ZM48.5931 117.872L48.8623 116.411C45.8466 115.855 42.9128 115.066 40.0804 114.063L39.5844 115.463L39.0884 116.864C42.0674 117.919 45.1527 118.749 48.3239 119.333L48.5931 117.872ZM33.8384 113.081L34.479 111.74C31.7287 110.426 29.0981 108.901 26.6079 107.187L25.7654 108.41L24.9228 109.634C27.5403 111.436 30.3059 113.039 33.1979 114.421L33.8384 113.081ZM20.8324 104.62L21.7978 103.49C19.4903 101.518 17.3396 99.3668 15.3669 97.0593L14.2376 98.0248L13.1083 98.9902C15.1815 101.415 17.4418 103.676 19.8669 105.749L20.8324 104.62ZM10.4469 93.0918L11.6706 92.2492C9.95597 89.7591 8.43119 87.1284 7.11706 84.3782L5.77652 85.0187L4.43598 85.6592C5.81781 88.5512 7.42091 91.3169 9.22325 93.9344L10.4469 93.0918ZM3.39385 79.2727L4.79433 78.7767C3.79122 75.9443 3.00216 73.0106 2.44659 69.9948L0.985467 70.264L-0.475661 70.5332C0.108546 73.7044 0.938371 76.7897 1.99337 79.7687L3.39385 79.2727ZM0.180582 64.0959L1.66183 63.9808C1.54516 62.479 1.48571 60.9609 1.48571 59.4286H0H-1.48571C-1.48571 61.0378 -1.42328 62.6327 -1.30067 64.211L0.180582 64.0959ZM0 59.4286H1.48571C1.48571 57.8963 1.54516 56.3781 1.66183 54.8763L0.180582 54.7612L-1.30067 54.6462C-1.42328 56.2245 -1.48571 57.8194 -1.48571 59.4286H0ZM0.985468 48.5931L2.44659 48.8623C3.00216 45.8466 3.79123 42.9128 4.79434 40.0804L3.39386 39.5844L1.99337 39.0884C0.938375 42.0674 0.108547 45.1527 -0.47566 48.3239L0.985468 48.5931ZM5.77652 33.8384L7.11707 34.479C8.4312 31.7287 9.95598 29.0981 11.6706 26.6079L10.4469 25.7654L9.22326 24.9228C7.42091 27.5403 5.81782 30.3059 4.43598 33.1979L5.77652 33.8384ZM14.2376 20.8324L15.3669 21.7978C17.3396 19.4903 19.4903 17.3396 21.7978 15.3669L20.8324 14.2376L19.867 13.1083C17.4418 15.1815 15.1815 17.4418 13.1083 19.8669L14.2376 20.8324ZM25.7654 10.4469L26.608 11.6706C29.0981 9.95597 31.7287 8.43119 34.479 7.11706L33.8384 5.77652L33.1979 4.43598C30.3059 5.81781 27.5403 7.42091 24.9228 9.22325L25.7654 10.4469ZM39.5844 3.39385L40.0804 4.79433C42.9128 3.79122 45.8466 3.00216 48.8623 2.44659L48.5931 0.985467L48.324 -0.475661C45.1528 0.108546 42.0674 0.938371 39.0884 1.99337L39.5844 3.39385ZM54.7612 0.180582L54.8763 1.66183C56.3781 1.54516 57.8963 1.48571 59.4286 1.48571V0V-1.48571C57.8194 -1.48571 56.2245 -1.42328 54.6462 -1.30067L54.7612 0.180582ZM59.4286 0V1.48571C60.9609 1.48571 62.479 1.54516 63.9808 1.66183L64.0959 0.180582L64.211 -1.30067C62.6327 -1.42328 61.0378 -1.48571 59.4286 -1.48571V0ZM70.264 0.985468L69.9948 2.44659C73.0106 3.00216 75.9443 3.79123 78.7768 4.79434L79.2727 3.39386L79.7687 1.99337C76.7898 0.938375 73.7044 0.108547 70.5332 -0.47566L70.264 0.985468ZM85.0187 5.77652L84.3782 7.11707C87.1284 8.4312 89.7591 9.95598 92.2492 11.6706L93.0918 10.4469L93.9344 9.22326C91.3169 7.42091 88.5512 5.81782 85.6593 4.43598L85.0187 5.77652ZM98.0248 14.2376L97.0594 15.3669C99.3669 17.3396 101.518 19.4903 103.49 21.7978L104.62 20.8324L105.749 19.867C103.676 17.4418 101.415 15.1815 98.9902 13.1083L98.0248 14.2376ZM108.41 25.7654L107.187 26.608C108.901 29.0981 110.426 31.7287 111.74 34.479L113.081 33.8384L114.421 33.1979C113.039 30.3059 111.436 27.5403 109.634 24.9228L108.41 25.7654ZM115.463 39.5844L114.063 40.0804C115.066 42.9128 115.855 45.8466 116.411 48.8623L117.872 48.5931L119.333 48.324C118.749 45.1528 117.919 42.0674 116.864 39.0884L115.463 39.5844ZM118.677 54.7612L117.195 54.8763C117.312 56.3781 117.371 57.8963 117.371 59.4286H118.857H120.343C120.343 57.8194 120.28 56.2245 120.158 54.6462L118.677 54.7612ZM118.857 59.4286H117.371C117.371 60.9609 117.312 62.479 117.195 63.9808L118.677 64.0959L120.158 64.211C120.28 62.6327 120.343 61.0378 120.343 59.4286H118.857ZM117.872 70.264L116.411 69.9948C115.855 73.0106 115.066 75.9443 114.063 78.7768L115.463 79.2727L116.864 79.7687C117.919 76.7898 118.749 73.7044 119.333 70.5332L117.872 70.264ZM113.081 85.0187L111.74 84.3782C110.426 87.1284 108.901 89.7591 107.187 92.2492L108.41 93.0918L109.634 93.9344C111.436 91.3169 113.039 88.5512 114.421 85.6593L113.081 85.0187ZM104.62 98.0248L103.49 97.0594C101.518 99.3669 99.3668 101.518 97.0593 103.49L98.0248 104.62L98.9902 105.749C101.415 103.676 103.676 101.415 105.749 98.9902L104.62 98.0248ZM93.0918 108.41L92.2492 107.187C89.7591 108.901 87.1284 110.426 84.3782 111.74L85.0187 113.081L85.6592 114.421C88.5512 113.039 91.3169 111.436 93.9344 109.634L93.0918 108.41ZM79.2727 115.463L78.7767 114.063C75.9443 115.066 73.0106 115.855 69.9948 116.411L70.264 117.872L70.5332 119.333C73.7044 118.749 76.7897 117.919 79.7687 116.864L79.2727 115.463ZM64.0959 118.677L63.9808 117.195C62.479 117.312 60.9609 117.371 59.4286 117.371V118.857V120.343C61.0378 120.343 62.6327 120.28 64.211 120.158L64.0959 118.677ZM59.4286 118.857V115.886C57.9347 115.886 56.455 115.828 54.9914 115.714L54.7612 118.677L54.5311 121.639C56.1476 121.765 57.7809 121.829 59.4286 121.829V118.857ZM48.5931 117.872L49.1315 114.949C46.1935 114.408 43.3356 113.639 40.5764 112.662L39.5844 115.463L38.5924 118.264C41.6446 119.345 44.8058 120.195 48.0548 120.794L48.5931 117.872ZM33.8384 113.081L35.1195 110.4C32.4401 109.119 29.877 107.634 27.4505 105.963L25.7654 108.41L24.0802 110.858C26.7614 112.704 29.5945 114.346 32.5573 115.762L33.8384 113.081ZM20.8324 104.62L22.7632 102.361C20.5145 100.439 18.4186 98.3426 16.4962 96.0939L14.2376 98.0248L11.979 99.9556C14.1025 102.44 16.4176 104.755 18.9015 106.878L20.8324 104.62ZM10.4469 93.0918L12.8943 91.4066C11.2235 88.9802 9.73788 86.417 8.4576 83.7376L5.77652 85.0187L3.09543 86.2998C4.51112 89.2626 6.15337 92.0958 7.99957 94.777L10.4469 93.0918ZM3.39385 79.2727L6.19481 78.2808C5.21765 75.5216 4.44896 72.6637 3.90772 69.7257L0.985467 70.264L-1.93679 70.8024C-1.33826 74.0513 -0.488054 77.2125 0.592887 80.2647L3.39385 79.2727ZM0.180582 64.0959L3.14308 63.8657C3.02938 62.4022 2.97143 60.9224 2.97143 59.4286H0H-2.97143C-2.97143 61.0762 -2.90751 62.7095 -2.78192 64.326L0.180582 64.0959ZM0 59.4286H2.97143C2.97143 57.9347 3.02938 56.455 3.14308 54.9914L0.180582 54.7612L-2.78192 54.5311C-2.90751 56.1476 -2.97143 57.7809 -2.97143 59.4286H0ZM0.985468 48.5931L3.90772 49.1315C4.44897 46.1935 5.21765 43.3356 6.19482 40.5764L3.39386 39.5844L0.592892 38.5924C-0.488051 41.6446 -1.33826 44.8058 -1.93679 48.0548L0.985468 48.5931ZM5.77652 33.8384L8.45761 35.1195C9.73789 32.4401 11.2235 29.877 12.8943 27.4505L10.4469 25.7654L7.99958 24.0802C6.15338 26.7614 4.51113 29.5945 3.09544 32.5573L5.77652 33.8384ZM14.2376 20.8324L16.4962 22.7632C18.4186 20.5145 20.5145 18.4186 22.7632 16.4962L20.8324 14.2376L18.9015 11.979C16.4176 14.1025 14.1025 16.4176 11.979 18.9015L14.2376 20.8324ZM25.7654 10.4469L27.4506 12.8943C29.877 11.2235 32.4401 9.73788 35.1195 8.4576L33.8384 5.77652L32.5574 3.09543C29.5946 4.51112 26.7614 6.15337 24.0802 7.99957L25.7654 10.4469ZM39.5844 3.39385L40.5764 6.19481C43.3356 5.21765 46.1935 4.44896 49.1315 3.90772L48.5931 0.985467L48.0548 -1.93679C44.8058 -1.33826 41.6447 -0.488054 38.5925 0.592887L39.5844 3.39385ZM54.7612 0.180582L54.9914 3.14308C56.455 3.02938 57.9347 2.97143 59.4286 2.97143V0V-2.97143C57.7809 -2.97143 56.1476 -2.90751 54.5311 -2.78192L54.7612 0.180582ZM59.4286 0V2.97143C60.9224 2.97143 62.4022 3.02938 63.8657 3.14308L64.0959 0.180582L64.326 -2.78192C62.7095 -2.90751 61.0762 -2.97143 59.4286 -2.97143V0ZM70.264 0.985468L69.7257 3.90772C72.6637 4.44897 75.5216 5.21765 78.2808 6.19482L79.2727 3.39386L80.2647 0.592892C77.2125 -0.488051 74.0513 -1.33826 70.8024 -1.93679L70.264 0.985468ZM85.0187 5.77652L83.7376 8.45761C86.417 9.73789 88.9802 11.2235 91.4066 12.8943L93.0918 10.4469L94.777 7.99958C92.0958 6.15338 89.2626 4.51113 86.2998 3.09544L85.0187 5.77652ZM98.0248 14.2376L96.0939 16.4962C98.3426 18.4186 100.439 20.5145 102.361 22.7632L104.62 20.8324L106.878 18.9015C104.755 16.4176 102.44 14.1025 99.9556 11.979L98.0248 14.2376ZM108.41 25.7654L105.963 27.4506C107.634 29.877 109.119 32.4401 110.4 35.1195L113.081 33.8384L115.762 32.5574C114.346 29.5946 112.704 26.7614 110.858 24.0802L108.41 25.7654ZM115.463 39.5844L112.662 40.5764C113.639 43.3356 114.408 46.1935 114.949 49.1315L117.872 48.5931L120.794 48.0548C120.195 44.8058 119.345 41.6447 118.264 38.5925L115.463 39.5844ZM118.677 54.7612L115.714 54.9914C115.828 56.455 115.886 57.9347 115.886 59.4286H118.857H121.829C121.829 57.7809 121.765 56.1476 121.639 54.5311L118.677 54.7612ZM118.857 59.4286H115.886C115.886 60.9224 115.828 62.4022 115.714 63.8657L118.677 64.0959L121.639 64.326C121.765 62.7095 121.829 61.0762 121.829 59.4286H118.857ZM117.872 70.264L114.949 69.7257C114.408 72.6637 113.639 75.5216 112.662 78.2808L115.463 79.2727L118.264 80.2647C119.345 77.2125 120.195 74.0513 120.794 70.8024L117.872 70.264ZM113.081 85.0187L110.4 83.7376C109.119 86.417 107.634 88.9802 105.963 91.4066L108.41 93.0918L110.858 94.777C112.704 92.0958 114.346 89.2626 115.762 86.2998L113.081 85.0187ZM104.62 98.0248L102.361 96.0939C100.439 98.3426 98.3426 100.439 96.0939 102.361L98.0248 104.62L99.9556 106.878C102.44 104.755 104.755 102.44 106.878 99.9556L104.62 98.0248ZM93.0918 108.41L91.4066 105.963C88.9802 107.634 86.417 109.119 83.7376 110.4L85.0187 113.081L86.2998 115.762C89.2626 114.346 92.0958 112.704 94.777 110.858L93.0918 108.41ZM79.2727 115.463L78.2808 112.662C75.5216 113.639 72.6637 114.408 69.7257 114.949L70.264 117.872L70.8024 120.794C74.0513 120.195 77.2125 119.345 80.2647 118.264L79.2727 115.463ZM64.0959 118.677L63.8657 115.714C62.4022 115.828 60.9224 115.886 59.4286 115.886V118.857V121.829C61.0762 121.829 62.7095 121.765 64.326 121.639L64.0959 118.677Z" fill="currentColor" mask="url(#path-1-inside-1_267_4449)"/>
<path d="M36.6035 85.4492C36.6035 87.79 38.5011 89.6875 40.8418 89.6875H48.7129C51.0536 89.6875 52.9511 87.79 52.9511 85.4492V84.2383H36.6035V85.4492Z" fill="currentColor"/>
<path d="M44.7773 44.8828C35.7632 44.8828 28.4297 52.2164 28.4297 61.2304C28.4297 65.6086 30.1411 69.7206 33.2487 72.8089C35.4121 74.9589 36.6035 77.7277 36.6035 80.6054H42.9609V66.8265L38.6493 62.5149C37.9399 61.8055 37.9399 60.6555 38.6493 59.9461C39.3585 59.2368 40.5086 59.2368 41.218 59.9461L44.7773 63.5054L48.3367 59.9461C49.046 59.2368 50.1961 59.2368 50.9055 59.9461C51.6149 60.6555 51.6149 61.8055 50.9055 62.5149L46.5937 66.8265V80.6054H52.9511C52.9511 77.7277 54.1426 74.9589 56.306 72.8089C59.4135 69.7206 61.1249 65.6086 61.1249 61.2304C61.1249 52.2164 53.7914 44.8828 44.7773 44.8828Z" fill="currentColor"/>
<path d="M76.6113 77.5781C77.6145 77.5781 78.4277 76.7649 78.4277 75.7617C78.4277 74.7585 77.6145 73.9453 76.6113 73.9453C75.6082 73.9453 74.7949 74.7585 74.7949 75.7617C74.7949 76.7649 75.6082 77.5781 76.6113 77.5781Z" fill="currentColor"/>
<path d="M89.5986 77.6689L88.077 76.686C88.1031 76.3752 88.1162 76.0665 88.1162 75.7617C88.1162 75.4569 88.1031 75.1482 88.077 74.8374L89.5986 73.8545C90.4116 73.3293 90.6699 72.2588 90.186 71.4205L87.1587 66.177C86.6747 65.3388 85.6182 65.0271 84.7571 65.4687L83.1399 66.2976C82.6336 65.9479 82.1008 65.6403 81.5445 65.3766L81.4537 63.5616C81.4054 62.595 80.6075 61.8359 79.6396 61.8359H73.5849C72.617 61.8359 71.8191 62.595 71.7708 63.5616L71.6801 65.3766C71.1237 65.6405 70.591 65.948 70.0847 66.2976L68.4674 65.4687C67.6063 65.0272 66.55 65.3388 66.0659 66.177L63.0385 71.4205C62.5545 72.2587 62.8129 73.3292 63.6259 73.8545L65.1475 74.8374C65.1215 75.1482 65.1084 75.4569 65.1084 75.7617C65.1084 76.0665 65.1215 76.3752 65.1475 76.686L63.6261 77.6689C62.813 78.1941 62.5546 79.2646 63.0386 80.1029L66.066 85.3464C66.5499 86.1845 67.6058 86.4963 68.4675 86.0547L70.0847 85.2258C70.5911 85.5756 71.1237 85.8831 71.6801 86.1469L71.7708 87.9619C71.8191 88.9286 72.617 89.6876 73.5849 89.6876H79.6396C80.6075 89.6876 81.4054 88.9286 81.4537 87.9619L81.5445 86.1469C82.101 85.8831 82.6335 85.5756 83.1399 85.2258L84.7571 86.0547C85.6186 86.4962 86.6747 86.1846 87.1587 85.3464L90.186 80.1029C90.67 79.2646 90.4117 78.194 89.5986 77.6689ZM76.6123 81.2109C73.6076 81.2109 71.1631 78.7664 71.1631 75.7617C71.1631 72.757 73.6076 70.3125 76.6123 70.3125C79.617 70.3125 82.0615 72.757 82.0615 75.7617C82.0615 78.7664 79.617 81.2109 76.6123 81.2109Z" fill="currentColor"/>
<path d="M44.7773 41.25C45.7805 41.25 46.5937 40.4367 46.5937 39.4336V36.7695C46.5937 33.7648 49.0383 31.3203 52.043 31.3203H69.3469C72.3516 31.3203 74.7961 33.7648 74.7961 36.7695V52.0015L71.8422 49.0477C71.1329 48.3383 69.9828 48.3383 69.2735 49.0477C68.5641 49.757 68.5641 50.9071 69.2735 51.6164L75.3282 57.6711C76.0375 58.3805 77.1875 58.3805 77.8969 57.6711L83.9516 51.6164C84.661 50.9071 84.661 49.757 83.9516 49.0477C83.2422 48.3383 82.0922 48.3383 81.3828 49.0477L78.429 52.0015V36.7695C78.429 31.7617 74.3548 27.6875 69.347 27.6875H52.043C47.0351 27.6875 42.9609 31.7617 42.9609 36.7695V39.4336C42.9609 40.4367 43.7742 41.25 44.7773 41.25Z" fill="currentColor"/>
</svg>
