<svg width="53" height="53" viewBox="0 0 53 53" fill="none" xmlns="http://www.w3.org/2000/svg">
<rect width="52.3308" height="52.3308" rx="10.4662" fill="#FEF2F2"/>
<path d="M36.772 32.7064L28.0502 17.4433C27.86 17.1077 27.5842 16.8286 27.2509 16.6344C26.9177 16.4402 26.5389 16.3379 26.1532 16.3379C25.7675 16.3379 25.3886 16.4402 25.0554 16.6344C24.7221 16.8286 24.4463 17.1077 24.2562 17.4433L15.5344 32.7064C15.3421 33.0393 15.2413 33.4171 15.2422 33.8016C15.243 34.186 15.3455 34.5634 15.5392 34.8954C15.7329 35.2275 16.011 35.5024 16.3452 35.6924C16.6794 35.8823 17.0579 35.9806 17.4423 35.9771H34.8859C35.2684 35.9767 35.6441 35.8757 35.9753 35.6841C36.3065 35.4926 36.5814 35.2173 36.7725 34.8859C36.9636 34.5545 37.0642 34.1787 37.0641 33.7961C37.064 33.4135 36.9632 33.0377 36.772 32.7064Z" stroke="#DC2626" stroke-width="2.18045" stroke-linecap="round" stroke-linejoin="round"/>
<path d="M26.1641 22.8945V27.2554" stroke="#DC2626" stroke-width="2.18045" stroke-linecap="round" stroke-linejoin="round"/>
<path d="M26.1641 31.6152H26.175" stroke="#DC2626" stroke-width="2.18045" stroke-linecap="round" stroke-linejoin="round"/>
</svg>
