<svg width="52" height="52" viewBox="0 0 52 52" fill="none" xmlns="http://www.w3.org/2000/svg">
<rect width="52" height="52" rx="5.57143" fill="#BF9655"/>
<path d="M25.9988 25.5C26.7688 25.5 27.428 25.2258 27.9763 24.6775C28.5247 24.1292 28.7988 23.47 28.7988 22.7C28.7988 21.93 28.5247 21.2708 27.9763 20.7225C27.428 20.1742 26.7688 19.9 25.9988 19.9C25.2288 19.9 24.5697 20.1742 24.0213 20.7225C23.473 21.2708 23.1988 21.93 23.1988 22.7C23.1988 23.47 23.473 24.1292 24.0213 24.6775C24.5697 25.2258 25.2288 25.5 25.9988 25.5ZM25.9988 35.79C28.8455 33.1767 30.9572 30.8025 32.3338 28.6675C33.7105 26.5325 34.3988 24.6367 34.3988 22.98C34.3988 20.4367 33.588 18.3542 31.9663 16.7325C30.3447 15.1108 28.3555 14.3 25.9988 14.3C23.6422 14.3 21.653 15.1108 20.0313 16.7325C18.4097 18.3542 17.5988 20.4367 17.5988 22.98C17.5988 24.6367 18.2872 26.5325 19.6638 28.6675C21.0405 30.8025 23.1522 33.1767 25.9988 35.79ZM25.9988 39.5C22.2422 36.3033 19.4363 33.3342 17.5813 30.5925C15.7263 27.8508 14.7988 25.3133 14.7988 22.98C14.7988 19.48 15.9247 16.6917 18.1763 14.615C20.428 12.5383 23.0355 11.5 25.9988 11.5C28.9622 11.5 31.5697 12.5383 33.8213 14.615C36.073 16.6917 37.1988 19.48 37.1988 22.98C37.1988 25.3133 36.2713 27.8508 34.4163 30.5925C32.5613 33.3342 29.7555 36.3033 25.9988 39.5Z" fill="white"/>
</svg>
